<svg width="594" height="668" viewBox="0 0 594 668" fill="none" xmlns="http://www.w3.org/2000/svg">
<path d="M585.674 500.667C590.323 492.615 593.211 483.543 593.211 475.396V192.604C593.211 184.457 590.326 175.387 585.676 167.335L297 334.001L585.674 500.667Z" fill="#00599C"/>
<path d="M322.652 661.223L567.559 519.828C574.614 515.755 581.026 508.721 585.674 500.667L297 334.001L8.32581 500.669C12.9742 508.721 19.3882 515.756 26.4412 519.828L271.348 661.223C285.456 669.37 308.544 669.37 322.652 661.223Z" fill="#004482"/>
<path d="M585.676 167.333C581.026 159.279 574.612 152.245 567.559 148.172L322.652 6.77671C308.544 -1.37007 285.455 -1.37007 271.348 6.77671L26.4411 148.172C12.3314 156.317 0.788818 176.312 0.788818 192.604V475.396C0.788818 483.543 3.67542 492.615 8.32575 500.667L297 334.001L585.676 167.333Z" fill="#659AD2"/>
<path d="M297 531.475C188.112 531.475 99.5259 442.889 99.5259 334.001C99.5259 225.113 188.112 136.527 297 136.527C367.262 136.527 432.79 174.337 468.011 235.202L382.549 284.656C364.921 254.19 332.139 235.264 297 235.264C242.555 235.264 198.263 279.556 198.263 334.001C198.263 388.444 242.555 432.738 297 432.738C332.143 432.738 364.925 413.811 382.555 383.34L468.016 432.792C432.796 493.663 367.266 531.475 297 531.475Z" fill="white"/>
<path d="M472.531 301.089H450.592V323.03H428.649V344.97H450.592V366.913H472.531V344.97H494.474V323.03H472.531V301.089ZM554.812 301.089H532.873V323.03H510.93V344.97H532.873V366.913H554.812V344.97H576.755V323.03H554.812V301.089Z" fill="white"/>
</svg>
