<svg width="432" height="800" viewBox="0 0 432 800" fill="none" xmlns="http://www.w3.org/2000/svg">
<path d="M412.948 630.862H409.934V629.176H418.048V630.862H415.054V639.274H412.948V630.862ZM429.131 631.301H429.084L426.098 639.276H424.731L421.764 631.301H421.727V639.276H419.743V629.177H422.664L425.415 636.328L428.157 629.177H431.067V639.276H429.13V631.301H429.131ZM143.144 424.362C143.144 424.362 122.175 436.556 158.068 440.683C201.55 445.643 223.774 444.932 271.692 435.863C271.692 435.863 284.29 443.762 301.884 450.604C194.464 496.642 58.7719 447.937 143.144 424.362ZM130.018 364.285C130.018 364.285 106.499 381.694 142.418 385.41C188.868 390.202 225.55 390.594 289.024 378.371C289.024 378.371 297.803 387.272 311.608 392.139C181.732 430.117 37.072 395.134 130.018 364.285Z" fill="#5382A1"/>
<path d="M240.676 262.375C267.144 292.848 233.721 320.27 233.721 320.27C233.721 320.27 300.929 285.576 270.063 242.13C241.236 201.614 219.13 181.484 338.806 112.076C338.806 112.076 150.954 158.993 240.676 262.375" fill="#F8981D"/>
<path d="M382.747 468.799C382.747 468.799 398.265 481.585 365.657 491.476C303.653 510.259 107.589 515.931 53.1236 492.224C33.5446 483.707 70.2608 471.887 81.8103 469.407C93.8552 466.795 100.739 467.281 100.739 467.281C78.9647 451.942 -39.9987 497.4 40.311 510.418C259.327 545.936 439.557 494.424 382.747 468.799ZM153.228 302.038C153.228 302.038 53.4978 325.726 117.911 334.328C145.109 337.969 199.326 337.145 249.828 332.914C291.101 329.432 332.544 322.03 332.544 322.03C332.544 322.03 317.99 328.263 307.461 335.452C206.187 362.087 10.5432 349.696 66.8665 322.452C114.499 299.426 153.228 302.038 153.228 302.038V302.038ZM332.133 402.04C435.083 348.543 387.483 297.133 354.258 304.059C346.115 305.754 342.484 307.222 342.484 307.222C342.484 307.222 345.507 302.487 351.281 300.437C417.009 277.329 467.559 368.59 330.063 404.736C330.063 404.737 331.656 403.313 332.133 402.04" fill="#5382A1"/>
<path d="M270.063 0C270.063 0 327.079 57.0347 215.987 144.738C126.902 215.091 195.673 255.204 215.95 301.036C163.95 254.119 125.788 212.818 151.39 174.379C188.967 117.953 293.068 90.5962 270.063 0Z" fill="#F8981D"/>
<path d="M163.345 547.004C262.164 553.329 413.912 543.494 417.506 496.735C417.506 496.735 410.598 514.461 335.837 528.538C251.493 544.411 147.466 542.558 85.7666 532.385C85.7681 532.384 98.3972 542.839 163.345 547.004V547.004ZM147.15 725.67C137.827 733.756 127.982 738.295 119.146 738.295C106.535 738.295 99.7209 730.733 99.7209 718.603C99.7209 705.483 107.021 695.89 136.31 695.89H147.148V725.67H147.15ZM172.872 754.692V664.855C172.872 641.905 159.783 626.762 128.224 626.762C109.8 626.762 93.6615 631.311 80.5442 637.113L84.3305 653.015C94.6583 649.225 108.027 645.696 121.149 645.696C139.329 645.696 147.15 653.015 147.15 668.149V679.503H138.076C93.9055 679.503 73.9804 696.649 73.9804 722.385C73.9804 744.595 87.111 757.22 111.834 757.22C127.726 757.22 139.589 750.659 150.678 741.057L152.691 754.694H172.872V754.692ZM258.719 754.692H226.637L188.026 629.036H216.043L240.001 706.24L245.327 729.459C257.447 695.889 266.02 661.83 270.307 629.036H297.561C290.259 670.414 277.12 715.832 258.719 754.692V754.692ZM381.791 725.67C372.452 733.756 362.588 738.295 353.753 738.295C341.163 738.295 334.332 730.733 334.332 718.603C334.332 705.483 341.65 695.89 370.936 695.89H381.791V725.67ZM407.511 754.692V664.855C407.511 641.905 394.39 626.762 362.868 626.762C344.43 626.762 328.286 631.311 315.174 637.113L318.955 653.015C329.287 649.225 342.681 645.696 355.792 645.696C373.959 645.696 381.791 653.015 381.791 668.149V679.503H372.703C328.519 679.503 308.603 696.649 308.603 722.385C308.603 744.595 321.723 757.22 346.442 757.22C362.343 757.22 374.201 750.659 385.31 741.057L387.33 754.694H407.511V754.692ZM45.7759 776.031C38.443 786.738 26.5992 795.208 13.6328 800L0.932617 785.055C10.802 779.991 19.2663 771.812 23.199 764.193C26.6007 757.418 28.0087 748.686 28.0087 727.804V584.348H55.3376V725.838C55.3362 753.756 53.1043 765.033 45.7759 776.031" fill="#5382A1"/>
</svg>
