<svg width="1286" height="803" viewBox="0 0 1286 803" fill="none" xmlns="http://www.w3.org/2000/svg">
<path d="M0.692261 731.253H43.0141V529.055L108.53 705.324C116.262 726.655 126.844 734.207 147.596 734.207C168.352 734.207 178.525 726.659 186.26 705.324L251.776 529.055V731.249H294.098V529.386C294.098 509.688 287.586 500.171 274.16 495.251C242.011 483.105 220.442 493.608 210.674 519.868L146.377 693.832L84.1167 519.868C74.7572 493.608 52.7823 483.105 20.6338 495.251C7.20434 500.171 0.692261 509.692 0.692261 529.382V731.253V731.253ZM329.288 566.674H371.597V678.071C371.202 684.123 373.202 698.326 396.386 698.764C408.214 698.992 487.674 698.764 488.416 698.764V566.132H530.823C531.018 566.132 530.78 747.01 530.784 747.78C531.014 792.389 485.034 802.078 463.84 802.828H330.204V768.378C330.442 768.378 463.742 768.414 464.078 768.374C491.316 764.893 488.099 748.514 488.096 742.999V729.57H398.14C356.286 729.104 329.638 707.002 329.308 681.583C329.275 679.227 330.211 567.787 329.285 566.67L329.288 566.674Z" fill="#00618A"/>
<path d="M563.44 731.252H685.113C699.356 731.252 713.191 727.644 724.182 721.404C742.492 711.232 751.446 697.448 751.446 679.39V641.974C751.446 627.201 741.273 613.413 721.331 604.226C710.749 599.298 697.728 596.674 685.113 596.674H633.833C616.749 596.674 608.609 590.438 606.576 576.654C606.167 575.012 606.167 573.696 606.167 572.057V548.755C606.167 547.44 606.167 546.124 606.576 544.485C608.609 533.983 613.088 531.024 628.142 529.385C629.361 529.385 630.989 529.054 632.212 529.054H753.074V494.923H634.245C617.154 494.923 608.2 496.235 600.064 499.186C574.833 508.707 563.845 523.807 563.845 550.063V579.936C563.845 602.914 585.415 622.607 621.63 627.201C625.703 627.528 629.77 627.855 633.837 627.855H677.787C679.418 627.855 681.046 627.855 682.265 628.186C695.695 629.502 701.39 632.452 705.463 638.361C707.902 641.312 708.716 644.27 708.716 647.552V677.416C708.716 681.033 706.682 685.63 702.615 689.566C698.951 693.505 692.847 696.133 684.707 696.791C683.079 696.791 681.86 697.117 680.232 697.117H563.436V731.248L563.44 731.252ZM1015.46 671.842C1015.46 706.962 1037.03 726.659 1080.57 730.599C1084.64 730.925 1088.71 731.252 1092.78 731.252H1203.06V697.117H1091.97C1067.14 697.117 1057.78 689.566 1057.78 671.515V494.919H1015.46V671.842ZM778.457 673.633V551.929C778.457 521.012 796.401 502.26 831.875 496.339C835.657 495.686 839.473 495.357 843.294 495.354H923.627C927.704 495.354 931.378 495.685 935.455 496.339C970.932 502.26 988.873 521.012 988.873 551.929V673.628C988.873 698.708 981.254 712.137 963.692 720.886L1005.38 766.412H956.24L922.513 729.578L888.559 732.181H843.294C835.546 732.181 827.393 730.862 818.419 727.903C791.507 719.024 778.457 701.918 778.457 673.628V673.633ZM824.134 670.674C824.134 672.321 824.542 673.963 824.951 675.937C827.396 690.08 838.407 697.975 855.125 697.975H893.575L858.256 659.398H907.393L938.2 693.042C943.875 689.382 947.613 683.784 948.918 676.595C949.323 674.952 949.323 673.306 949.323 671.663V554.896C949.323 553.58 949.323 551.933 948.918 550.287C946.469 537.129 935.458 529.569 919.149 529.569H855.125C836.37 529.569 824.137 539.437 824.137 554.896V670.674H824.134Z" fill="#E48E00"/>
<path d="M1240.29 438.292C1214.28 437.439 1194.41 440.366 1177.42 449.034C1172.59 451.498 1164.89 451.562 1164.11 458.883C1166.76 462.248 1167.17 467.272 1169.28 471.411C1173.33 479.353 1180.19 489.995 1186.3 495.577C1192.97 501.678 1199.85 508.197 1207.01 513.48C1219.74 522.87 1233.96 528.233 1246.22 537.643C1253.44 543.189 1260.62 550.175 1267.67 556.435C1271.15 559.529 1273.49 564.342 1278.02 566.284V565.386C1275.64 561.722 1275.03 556.682 1272.84 552.854L1263.23 541.22C1253.82 526.12 1241.89 512.858 1229.2 501.841C1219.08 493.053 1196.44 481.187 1192.21 466.937L1191.47 466.04C1198.65 465.063 1207.05 461.921 1213.67 459.78C1224.79 456.167 1234.73 457.1 1246.22 453.512C1251.39 451.722 1256.57 449.927 1261.75 448.141V444.56C1255.94 437.351 1251.8 427.814 1245.47 421.291C1228.91 404.225 1210.83 387.176 1192.21 372.961C1181.89 365.074 1169.13 359.951 1158.19 353.268C1154.51 351.023 1148.04 349.855 1145.61 346.107C1139.86 337.243 1136.73 326.003 1132.29 315.676C1123.01 294.045 1113.89 270.417 1105.67 247.653C1100.05 232.135 1096.39 216.832 1089.39 202.904C1055.8 136.09 1019.65 95.7667 963.639 56.1253C951.722 47.6963 937.373 44.3629 922.21 40.0168L897.8 38.2225C892.833 35.7106 887.666 28.362 883.003 24.7974C864.449 10.6187 816.86 -20.2307 803.118 20.3237C794.44 45.9219 816.086 70.9021 823.827 83.8727C829.262 92.9716 836.219 103.171 840.101 113.406C842.655 120.133 843.096 126.875 845.281 133.993C850.66 151.525 855.333 170.596 862.293 186.796C865.81 194.994 869.685 203.63 874.131 210.959C876.856 215.46 881.526 217.442 882.264 224.388C877.697 232.123 877.436 244.125 874.869 253.921C863.308 298.029 867.668 352.845 884.486 385.489C889.646 395.509 901.801 417 918.513 408.759C933.132 401.554 929.866 379.229 934.048 359.536C934.994 355.07 934.41 351.785 936.266 348.794V349.691L949.58 381.909C959.434 401.107 976.927 421.175 991.747 434.716C999.432 441.737 1005.48 453.879 1015.42 457.986V457.088H1014.68C1012.75 453.46 1009.74 451.953 1007.28 449.034C1001.49 442.168 995.056 433.631 990.267 425.764C976.788 403.623 964.875 379.393 954.022 354.165C948.838 342.124 944.333 328.83 939.963 316.573C938.279 311.848 938.299 304.703 934.789 302.251C930.004 311.234 922.955 318.499 919.254 329.105C913.335 346.059 912.571 366.733 910.379 388.173C909.081 388.735 909.654 388.348 908.896 389.066C898.594 386.059 894.972 373.228 891.146 362.219C881.457 334.38 879.661 289.552 888.18 257.506C890.388 249.212 900.354 223.096 896.32 215.44C894.395 207.797 888.042 203.375 884.486 197.538C880.086 190.317 875.693 180.811 872.648 172.474C864.722 150.767 861.021 126.401 852.677 104.459C848.689 93.9685 841.943 83.3544 836.403 74.0282C830.27 63.7012 823.402 56.0855 818.65 43.5934C816.959 39.1556 814.662 32.0503 817.167 27.4848C817.968 24.4067 819.091 23.1188 821.609 22.114C825.9 18.1148 837.85 23.4457 842.319 25.6946C854.183 31.6555 864.083 37.3334 874.131 45.3837C878.956 49.2553 883.833 56.7394 889.663 58.8128H896.32C906.734 61.7075 918.4 59.7099 928.129 63.2865C945.325 69.6103 960.736 79.4429 974.729 90.1367C1017.37 122.709 1052.23 169.077 1076.08 224.388C1079.91 233.291 1081.57 241.792 1084.95 251.238C1091.77 270.289 1100.36 289.891 1107.14 308.519C1113.91 327.1 1120.51 345.86 1130.08 361.326C1135.11 369.456 1154.54 373.818 1163.36 378.328C1169.55 381.494 1179.69 384.791 1185.56 389.066C1196.76 397.24 1207.6 406.968 1218.11 415.92C1223.36 420.394 1239.49 430.206 1240.3 438.292H1240.29Z" fill="#00618A"/>
<path fill-rule="evenodd" clip-rule="evenodd" d="M909.638 97.2978C904.213 97.1782 900.377 98.0155 896.32 99.0841V99.9812H897.062C899.649 106.413 904.213 110.551 907.416 116.09C909.88 122.356 912.347 128.622 914.815 134.886L915.553 133.993C920.134 130.085 922.233 123.837 922.21 114.303C920.375 111.967 920.101 109.032 918.512 106.245C916.397 102.529 912.304 100.424 909.638 97.2978V97.2978Z" fill="#00618A"/>
<path fill-rule="evenodd" clip-rule="evenodd" d="M1222.93 696.145C1222.93 718.689 1237.65 733.88 1254.12 733.88C1270.59 733.88 1285.31 718.689 1285.31 696.145C1285.31 673.605 1270.59 658.413 1254.12 658.413C1237.65 658.413 1222.93 673.605 1222.93 696.145H1222.93ZM1278.32 696.145C1278.32 713.25 1267.51 726.033 1254.12 726.033C1240.56 726.033 1229.92 713.25 1229.92 696.145C1229.92 679.039 1240.56 666.256 1254.12 666.256C1267.51 666.256 1278.32 679.039 1278.32 696.145ZM1262.52 717.676H1269.51L1259.28 698.764C1264.77 698.059 1268.92 694.837 1268.92 686.99C1268.92 678.234 1264.35 674.614 1255.54 674.614H1241.64V717.676H1247.63V699.063H1253.2L1262.52 717.68V717.676ZM1247.63 693.027V680.65H1254.53C1258.11 680.65 1262.44 681.456 1262.44 686.488C1262.44 692.52 1258.53 693.027 1254.03 693.027H1247.63V693.027Z" fill="#E48E00"/>
</svg>
