<svg width="924" height="486" viewBox="0 0 924 486" fill="none" xmlns="http://www.w3.org/2000/svg">
<path d="M0.461548 243C0.461548 377.086 207.104 485.786 461.999 485.786C716.895 485.786 923.539 377.086 923.539 243C923.539 108.915 716.895 0.213285 461.999 0.213285C207.104 0.213285 0.461548 108.915 0.461548 243" fill="url(#paint0_radial)"/>
<path d="M461.999 467.759C706.939 467.759 905.508 367.132 905.508 243C905.508 118.868 706.939 18.2389 461.999 18.2389C217.059 18.2389 18.4904 118.868 18.4904 242.998C18.4904 367.132 217.059 467.762 461.999 467.762" fill="#777BB3"/>
<path d="M251.219 270.866C271.36 270.866 286.395 267.152 295.909 259.832C305.321 252.583 311.821 240.028 315.228 222.515C318.405 206.146 317.195 194.716 311.632 188.548C305.945 182.248 293.649 179.052 275.086 179.052H242.901L225.056 270.866H251.219ZM145.946 383.963C145.207 383.964 144.478 383.801 143.809 383.486C143.141 383.171 142.551 382.712 142.081 382.142C141.612 381.572 141.274 380.905 141.092 380.189C140.911 379.473 140.89 378.726 141.031 378.001L188.32 134.695C188.542 133.554 189.154 132.525 190.051 131.786C190.948 131.046 192.074 130.642 193.236 130.642H295.156C327.187 130.642 351.029 139.339 366.014 156.495C381.08 173.741 385.732 197.848 379.841 228.144C377.444 240.487 373.321 251.951 367.588 262.215C361.846 272.489 354.259 281.997 345.032 290.477C333.988 300.812 321.488 308.307 307.913 312.718C294.553 317.07 277.398 319.278 256.918 319.278H215.649L203.863 379.91C203.642 381.051 203.03 382.079 202.134 382.819C201.237 383.558 200.111 383.963 198.949 383.963H145.946Z" fill="black"/>
<path d="M247.029 184.06H275.087C297.49 184.06 305.274 188.977 307.918 191.906C312.305 196.771 313.133 207.027 310.314 221.565C307.145 237.841 301.272 249.382 292.856 255.862C284.238 262.496 270.229 265.858 251.221 265.858H231.13L247.029 184.06ZM295.156 125.634H193.236C190.912 125.634 188.659 126.442 186.865 127.921C185.071 129.4 183.848 131.456 183.404 133.738L136.118 377.044C135.837 378.494 135.879 379.988 136.243 381.42C136.607 382.851 137.282 384.185 138.222 385.325C139.162 386.464 140.342 387.382 141.677 388.012C143.013 388.643 144.472 388.969 145.949 388.97H198.95C201.275 388.97 203.527 388.162 205.321 386.683C207.115 385.205 208.339 383.149 208.783 380.867L219.78 324.285H256.921C277.925 324.285 295.607 321.994 309.47 317.479C323.727 312.846 336.846 304.992 348.456 294.135C358.058 285.301 365.967 275.385 371.96 264.659C377.953 253.931 382.26 241.966 384.761 229.099C390.962 197.208 385.924 171.671 369.787 153.201C353.81 134.909 328.7 125.634 295.159 125.634H295.156ZM218.983 275.874H251.222C272.59 275.874 288.509 271.849 298.965 263.798C309.427 255.745 316.482 242.305 320.148 223.472C323.653 205.39 322.057 192.629 315.355 185.194C308.644 177.762 295.223 174.043 275.089 174.043H238.774L218.983 275.872V275.874ZM295.159 135.648C325.82 135.648 348.187 143.694 362.247 159.79C376.302 175.882 380.537 198.348 374.928 227.189C372.62 239.07 368.715 249.932 363.218 259.773C357.714 269.621 350.528 278.625 341.647 286.79C331.063 296.694 319.306 303.75 306.369 307.955C293.432 312.17 276.954 314.269 256.921 314.269H211.522L198.95 378.955H145.949L193.236 135.65H295.158" fill="white"/>
<path d="M501.367 319.277C499.872 319.277 498.454 318.609 497.504 317.454C497.034 316.884 496.695 316.218 496.513 315.502C496.331 314.786 496.31 314.039 496.451 313.314L517.37 205.66C519.359 195.422 518.869 188.074 515.989 184.969C514.226 183.071 508.931 179.887 493.274 179.887H455.377L429.077 315.223C428.855 316.365 428.243 317.393 427.346 318.133C426.449 318.872 425.323 319.277 424.161 319.277H371.576C370.838 319.277 370.108 319.114 369.44 318.799C368.771 318.485 368.181 318.026 367.711 317.456C367.241 316.886 366.903 316.219 366.721 315.502C366.54 314.786 366.519 314.039 366.66 313.314L413.949 70.0081C414.171 68.867 414.783 67.8384 415.68 67.0989C416.577 66.3594 417.703 65.955 418.865 65.955H471.449C472.188 65.955 472.918 66.1184 473.586 66.4334C474.254 66.7484 474.844 67.2073 475.314 67.7772C475.783 68.3471 476.121 69.0139 476.303 69.7297C476.485 70.4456 476.506 71.1928 476.366 71.9179L464.954 130.642H505.723C536.781 130.642 557.841 136.117 570.107 147.382C582.61 158.874 586.512 177.248 581.704 202.002L559.702 315.223C559.481 316.365 558.869 317.393 557.972 318.133C557.075 318.872 555.949 319.277 554.786 319.277H501.367Z" fill="black"/>
<path d="M471.449 60.947H418.865C416.541 60.9469 414.288 61.7555 412.494 63.2342C410.7 64.7129 409.477 66.7696 409.033 69.0517L361.744 312.357C361.461 313.808 361.503 315.302 361.867 316.735C362.23 318.167 362.906 319.501 363.846 320.641C364.786 321.781 365.966 322.699 367.303 323.329C368.639 323.959 370.099 324.285 371.576 324.285H424.161C426.485 324.285 428.738 323.476 430.532 321.997C432.326 320.519 433.549 318.462 433.993 316.18L459.505 184.895H493.276C508.904 184.895 512.185 188.234 512.316 188.377C513.265 189.396 514.512 194.12 512.453 204.704L491.537 312.359C491.254 313.809 491.296 315.304 491.66 316.736C492.023 318.168 492.699 319.502 493.639 320.641C494.579 321.781 495.76 322.699 497.096 323.329C498.432 323.959 499.892 324.285 501.369 324.285H554.788C557.112 324.285 559.365 323.476 561.159 321.997C562.953 320.519 564.176 318.462 564.62 316.18L586.619 202.957C591.782 176.38 587.365 156.443 573.498 143.696C560.261 131.542 538.093 125.634 505.723 125.634H471.027L481.282 72.8745C481.563 71.4243 481.521 69.9297 481.157 68.4979C480.793 67.0661 480.117 65.7325 479.178 64.5926C478.238 63.4527 477.058 62.5347 475.722 61.9045C474.386 61.2742 472.927 60.9473 471.449 60.947V60.947ZM471.449 70.963L458.879 135.65H505.723C535.198 135.65 555.529 140.795 566.72 151.071C577.908 161.354 581.26 178.014 576.788 201.048L554.786 314.269H501.367L522.286 206.617C524.666 194.37 523.791 186.017 519.658 181.563C515.523 177.109 506.727 174.879 493.274 174.879H451.249L424.162 314.269H371.578L418.867 70.963H471.451" fill="white"/>
<path d="M664.907 270.866C685.048 270.866 700.083 267.152 709.595 259.832C719.009 252.587 725.509 240.03 728.918 222.515C732.094 206.146 730.884 194.716 725.32 188.548C719.633 182.248 707.337 179.052 688.774 179.052H656.587L638.742 270.866H664.907ZM559.635 383.963C558.897 383.964 558.167 383.801 557.499 383.486C556.831 383.171 556.24 382.712 555.771 382.142C555.301 381.572 554.963 380.905 554.781 380.189C554.599 379.473 554.578 378.726 554.719 378.001L602.008 134.695C602.23 133.554 602.843 132.525 603.74 131.786C604.637 131.046 605.763 130.642 606.926 130.642H708.844C740.877 130.642 764.717 139.339 779.704 156.495C794.77 173.739 799.419 197.846 793.531 228.144C791.131 240.487 787.009 251.951 781.275 262.215C775.532 272.489 767.947 281.997 758.72 290.477C747.676 300.812 735.176 308.307 721.601 312.718C708.241 317.07 691.084 319.278 670.606 319.278H629.334L617.553 379.91C617.331 381.052 616.719 382.08 615.822 382.82C614.924 383.559 613.798 383.963 612.635 383.963H559.635Z" fill="black"/>
<path d="M660.717 184.06H688.773C711.178 184.06 718.96 188.977 721.604 191.906C725.995 196.771 726.821 207.027 724 221.564C720.831 237.84 714.957 249.382 706.542 255.862C697.925 262.496 683.916 265.858 664.909 265.858H644.82L660.717 184.06ZM708.844 125.634H606.924C604.6 125.634 602.348 126.443 600.554 127.922C598.761 129.4 597.537 131.457 597.094 133.738L549.806 377.044C549.525 378.494 549.567 379.988 549.931 381.42C550.295 382.851 550.97 384.185 551.91 385.325C552.85 386.464 554.029 387.382 555.365 388.012C556.701 388.643 558.16 388.969 559.637 388.97H612.638C614.963 388.97 617.215 388.162 619.009 386.683C620.803 385.205 622.027 383.149 622.471 380.867L633.467 324.285H670.609C691.611 324.285 709.293 321.994 723.157 317.479C737.415 312.846 750.536 304.99 762.146 294.131C771.748 285.299 779.654 275.385 785.647 264.659C791.641 253.931 795.948 241.966 798.447 229.099C804.649 197.207 799.611 171.669 783.475 153.199C767.496 134.909 742.388 125.634 708.846 125.634H708.844ZM632.671 275.874H664.909C686.278 275.874 702.195 271.849 712.653 263.798C723.115 255.745 730.168 242.305 733.834 223.472C737.343 205.39 735.745 192.629 729.043 185.194C722.332 177.762 708.911 174.043 688.775 174.043H652.46L632.671 275.872V275.874ZM708.846 135.648C739.506 135.648 761.874 143.694 775.933 159.79C789.992 175.882 794.224 198.348 788.615 227.189C786.306 239.07 782.402 249.932 776.904 259.773C771.401 269.621 764.214 278.625 755.333 286.79C744.75 296.694 732.993 303.75 720.055 307.955C707.118 312.17 690.642 314.269 670.609 314.269H625.209L612.638 378.955H559.637L606.926 135.65H708.846" fill="white"/>
<defs>
<radialGradient id="paint0_radial" cx="0" cy="0" r="1" gradientUnits="userSpaceOnUse" gradientTransform="translate(277.571 85.5697) scale(606.065)">
<stop stop-color="#AEB2D5"/>
<stop offset="0.3" stop-color="#AEB2D5"/>
<stop offset="0.75" stop-color="#484C89"/>
<stop offset="1" stop-color="#484C89"/>
</radialGradient>
</defs>
</svg>
