<svg width="1205" height="1215" viewBox="0 0 1205 1215" fill="none" xmlns="http://www.w3.org/2000/svg">
<path d="M598.247 0.344238C292.647 0.344238 311.728 134.745 311.728 134.745L312.067 273.988H603.696V315.793H196.237C196.237 315.793 0.683472 293.301 0.683472 606.01C0.683472 918.729 171.367 907.639 171.367 907.639H273.231V762.525C273.231 762.525 267.74 589.427 441.191 589.427H730.434C730.434 589.427 892.94 592.09 892.94 430.149V162.39C892.94 162.39 917.621 0.344238 598.247 0.344238ZM437.443 93.9826C444.335 93.9763 451.159 95.3482 457.527 98.0198C463.895 100.691 469.682 104.61 474.554 109.552C479.427 114.494 483.292 120.362 485.926 126.82C488.56 133.278 489.913 140.199 489.907 147.188C489.913 154.177 488.56 161.099 485.926 167.557C483.292 174.015 479.427 179.883 474.554 184.825C469.682 189.766 463.895 193.685 457.527 196.357C451.159 199.028 444.335 200.4 437.443 200.394C430.552 200.4 423.727 199.028 417.359 196.357C410.991 193.685 405.205 189.766 400.332 184.825C395.459 179.883 391.595 174.015 388.96 167.557C386.326 161.099 384.973 154.177 384.979 147.188C384.973 140.199 386.326 133.278 388.96 126.82C391.595 120.362 395.459 114.494 400.332 109.552C405.205 104.61 410.991 100.691 417.359 98.0198C423.727 95.3482 430.552 93.9763 437.443 93.9826V93.9826Z" fill="url(#paint0_linear)"/>
<path d="M606.925 1214.82C912.525 1214.82 893.444 1080.42 893.444 1080.42L893.105 941.183H601.471V899.378H1008.93C1008.93 899.378 1204.48 921.87 1204.48 609.151C1204.48 296.437 1033.8 307.527 1033.8 307.527H931.937V452.636C931.937 452.636 937.428 625.734 763.977 625.734H474.733C474.733 625.734 312.228 623.072 312.228 785.017V1052.78C312.228 1052.78 287.551 1214.82 606.92 1214.82H606.925ZM767.729 1121.19C760.838 1121.2 754.013 1119.83 747.645 1117.16C741.277 1114.48 735.491 1110.57 730.618 1105.62C725.745 1100.68 721.881 1094.81 719.246 1088.36C716.612 1081.9 715.259 1074.98 715.265 1067.99C715.259 1061 716.611 1054.08 719.245 1047.62C721.879 1041.16 725.743 1035.29 730.616 1030.35C735.489 1025.41 741.275 1021.49 747.644 1018.81C754.012 1016.14 760.837 1014.77 767.729 1014.78C774.621 1014.77 781.446 1016.14 787.814 1018.81C794.182 1021.49 799.968 1025.4 804.841 1030.35C809.713 1035.29 813.578 1041.16 816.212 1047.61C818.846 1054.07 820.199 1060.99 820.193 1067.98C820.199 1074.97 818.846 1081.89 816.212 1088.35C813.578 1094.81 809.713 1100.68 804.841 1105.62C799.968 1110.56 794.182 1114.48 787.814 1117.15C781.446 1119.82 774.621 1121.19 767.729 1121.19V1121.19Z" fill="url(#paint1_linear)"/>
<defs>
<linearGradient id="paint0_linear" x1="116.368" y1="109.579" x2="721.228" y2="700.054" gradientUnits="userSpaceOnUse">
<stop stop-color="#387EB8"/>
<stop offset="1" stop-color="#366994"/>
</linearGradient>
<linearGradient id="paint1_linear" x1="482.541" y1="494.201" x2="1131.67" y2="1099.29" gradientUnits="userSpaceOnUse">
<stop stop-color="#FFE052"/>
<stop offset="1" stop-color="#FFC331"/>
</linearGradient>
</defs>
</svg>
