<svg width="924" height="386" viewBox="0 0 924 386" fill="none" xmlns="http://www.w3.org/2000/svg">
<path d="M897.207 256.089H890.947V272.39H885.471V256.089H879.202V251.38H897.207V256.089ZM899.655 251.38H907.716L911.332 265.386H911.392L915.017 251.38H923.077V272.39H917.925V256.442H917.866L913.456 272.39H909.277L904.858 256.442H904.799V272.39H899.655V251.38V251.38ZM680.482 271.204C672.844 274.426 665.129 276.038 657.347 276.038C645.059 276.038 634.014 273.897 624.202 269.623C614.389 265.346 606.115 259.458 599.375 251.948C592.631 244.447 587.467 235.629 583.872 225.499C580.277 215.368 578.478 204.445 578.478 192.738C578.478 180.737 580.271 169.592 583.856 159.309C587.439 149.03 592.595 140.064 599.321 132.408C606.046 124.753 614.309 118.752 624.117 114.395C633.925 110.044 644.968 107.865 657.257 107.865C665.493 107.865 673.466 109.107 681.181 111.587C688.895 114.072 695.858 117.72 702.076 122.531C708.292 127.343 713.422 133.276 717.466 140.322C721.511 147.375 723.985 155.466 724.885 164.601H691.185C689.086 155.618 685.04 148.877 679.05 144.383C673.053 139.889 665.79 137.641 657.257 137.641C649.315 137.641 642.575 139.18 637.034 142.258C631.494 145.335 626.999 149.464 623.552 154.64C620.104 159.821 617.599 165.711 616.028 172.315C614.452 178.918 613.671 185.744 613.671 192.797C613.671 199.554 614.457 206.121 616.033 212.497C617.61 218.874 620.12 224.616 623.567 229.716C627.014 234.818 631.514 238.905 637.065 241.982C642.611 245.059 649.362 246.599 657.315 246.599C669.011 246.599 678.041 243.648 684.416 237.748C690.794 231.847 694.503 223.293 695.557 212.085H660.058V185.691H727.363V272.437H704.968L701.383 254.239C695.091 262.328 688.122 267.985 680.482 271.204V271.204ZM784.565 111.925V242.538H862.757V272.315H749.374V111.925H784.565" fill="#961A1F"/>
<path d="M618.137 292.253C564.293 325.001 483.65 343.641 393.67 343.641C231.56 343.641 100.142 276.138 100.142 192.865C100.142 109.594 231.56 42.0894 393.671 42.0894C483.978 42.0894 564.952 61.0758 618.797 94.029C560.023 38.816 454.644 0.0179199 334.157 8.18884e-06C149.624 -0.0306976 0.0159938 86.2962 1.18176e-06 192.813C-0.0153517 299.326 149.565 385.706 334.099 385.732C454.107 385.752 559.212 347.08 618.137 292.253Z" fill="#961A1F"/>
<path d="M322.409 99.4459L291.465 233.352L254.1 99.4459H225.726L188.444 233.353L157.406 99.4459H128.171L174.087 273.983H201.517L240.143 136.894L278.303 273.983H305.812L353.342 99.4459H322.409V99.4459ZM430.658 172.909C426.361 166.861 420.987 162.207 414.68 159.072C408.195 155.848 400.677 154.215 392.335 154.215C382.945 154.215 374.486 155.917 367.191 159.275C360.274 162.461 354.369 167.143 349.64 173.195C340.889 184.394 336.262 200.175 336.262 218.826C336.262 227.128 337.44 234.917 339.763 241.979C342.099 249.079 345.547 255.311 350.013 260.5C359.401 271.409 372.785 277.176 388.719 277.176C397.085 277.176 403.917 276.301 409.599 274.501C414.565 272.929 417.865 270.894 420.568 269.108C424.052 266.811 427.251 263.986 430.081 260.716C432.483 257.94 434.623 254.839 436.441 251.501C439.697 245.521 441.273 239.935 441.631 236.968L441.869 235.006H419.075L418.95 236.622C418.375 244.027 408.654 257.257 391.338 257.257C366.582 257.257 360.684 239.36 360.292 223.602H443.172V221.85C443.172 211.687 442.131 202.408 440.081 194.268C437.983 185.942 434.813 178.755 430.658 172.908V172.909ZM389.716 174.781C408.077 174.781 417.894 184.664 419.682 204.979H360.317C361.187 188.437 374.296 174.781 389.716 174.781ZM557.889 189.692C555.682 182.64 552.428 176.426 548.222 171.221C543.878 165.849 538.609 161.671 532.564 158.802C526.252 155.807 519.177 154.289 511.536 154.289H511.508C504.458 154.404 498.021 155.94 492.379 158.859C487.714 161.271 483.532 164.656 479.907 168.951V115.405H457.207V274.011H478.817V263.216C480.715 265.698 483.152 268.316 486.381 270.63C492.511 275.023 500.093 277.249 508.919 277.249C518.411 277.249 526.873 275.132 534.074 270.954C540.491 267.232 545.924 261.869 550.224 255.016C553.977 249.034 556.834 241.988 558.711 234.072C560.332 227.23 561.19 219.743 561.19 212.421C561.19 204.331 560.08 196.684 557.889 189.692V189.692ZM537.492 215.446C537.492 227.898 534.988 238.334 530.247 245.626C525.2 253.394 517.876 257.331 508.482 257.331C494.898 257.331 479.036 247.832 479.036 221.062C479.036 208.239 480.621 198.374 483.88 190.898C488.586 180.102 496.492 174.855 508.046 174.855C520.341 174.855 528.565 179.675 533.184 189.587C537.002 197.779 537.492 207.71 537.492 215.446" fill="#961A1F"/>
</svg>
